<mxfile host="app.diagrams.net" modified="2023-11-04T21:22:05.112Z" agent="Mozilla/5.0 (Windows NT 10.0; Win64; x64) AppleWebKit/537.36 (KHTML, like Gecko) Chrome/118.0.0.0 Safari/537.36 Edg/118.0.2088.76" etag="sZDb8ux4DqJbaDiH0FtC" version="22.0.8" type="device" pages="2">
  <diagram name="Страница — 1" id="GVLyQN0fC45XJ6EhKHbC">
    <mxGraphModel dx="3531" dy="2644" grid="1" gridSize="10" guides="1" tooltips="1" connect="1" arrows="1" fold="1" page="1" pageScale="1" pageWidth="827" pageHeight="1169" math="0" shadow="0">
      <root>
        <mxCell id="0" />
        <mxCell id="1" parent="0" />
        <mxCell id="SWi8Wzye7kiEAVYPJvs1-1" value="&lt;p style=&quot;margin:0px;margin-top:4px;text-align:center;&quot;&gt;&lt;i&gt;&amp;lt;&amp;lt;Interface&amp;gt;&amp;gt;&lt;/i&gt;&lt;br&gt;&lt;b&gt;iRepo&lt;/b&gt;&lt;/p&gt;&lt;hr size=&quot;1&quot;&gt;&lt;p style=&quot;margin:0px;margin-left:4px;&quot;&gt;&amp;nbsp;+ getUserById(int): User&lt;br&gt;&lt;/p&gt;&lt;p style=&quot;border-color: var(--border-color); margin: 0px 0px 0px 4px;&quot;&gt;+ deleteUSerById(int): void&lt;/p&gt;&lt;p style=&quot;border-color: var(--border-color); margin: 0px 0px 0px 4px;&quot;&gt;+ createUser(User): void&lt;/p&gt;&lt;p style=&quot;border-color: var(--border-color); margin: 0px 0px 0px 4px;&quot;&gt;+ updateUser(User): void&lt;/p&gt;" style="verticalAlign=top;align=left;overflow=fill;fontSize=12;fontFamily=Helvetica;html=1;whiteSpace=wrap;" vertex="1" parent="1">
          <mxGeometry x="10" y="460" width="190" height="140" as="geometry" />
        </mxCell>
        <mxCell id="SWi8Wzye7kiEAVYPJvs1-2" value="&lt;p style=&quot;margin:0px;margin-top:4px;text-align:center;&quot;&gt;&lt;i&gt;&amp;lt;&amp;lt;Interface&amp;gt;&amp;gt;&lt;/i&gt;&lt;br&gt;&lt;b&gt;iAccess&lt;/b&gt;&lt;/p&gt;&lt;hr size=&quot;1&quot;&gt;&lt;p style=&quot;border-color: var(--border-color); margin: 0px 0px 0px 4px;&quot;&gt;+ getAutToken(User): Token&lt;br style=&quot;border-color: var(--border-color);&quot;&gt;&lt;/p&gt;&lt;p style=&quot;border-color: var(--border-color); margin: 0px 0px 0px 4px;&quot;&gt;+ checkToken(Token): Bool&lt;/p&gt;&lt;p style=&quot;border-color: var(--border-color); margin: 0px 0px 0px 4px;&quot;&gt;+ deleteToken(Token): void&lt;/p&gt;" style="verticalAlign=top;align=left;overflow=fill;fontSize=12;fontFamily=Helvetica;html=1;whiteSpace=wrap;" vertex="1" parent="1">
          <mxGeometry x="10" y="280" width="190" height="140" as="geometry" />
        </mxCell>
        <mxCell id="SWi8Wzye7kiEAVYPJvs1-3" value="&lt;p style=&quot;margin:0px;margin-top:4px;text-align:center;&quot;&gt;&lt;b&gt;TokenAdapter&lt;/b&gt;&lt;/p&gt;&lt;hr size=&quot;1&quot;&gt;&lt;p style=&quot;margin:0px;margin-left:4px;&quot;&gt;&lt;span style=&quot;background-color: initial;&quot;&gt;+ getAutToken(User): Token&lt;/span&gt;&lt;br&gt;&lt;/p&gt;&lt;p style=&quot;margin:0px;margin-left:4px;&quot;&gt;+ checkToken(Token): Bool&lt;/p&gt;&lt;p style=&quot;margin:0px;margin-left:4px;&quot;&gt;+ deleteToken(Token): void&lt;br&gt;&lt;/p&gt;" style="verticalAlign=top;align=left;overflow=fill;fontSize=12;fontFamily=Helvetica;html=1;whiteSpace=wrap;" vertex="1" parent="1">
          <mxGeometry x="210" y="-10" width="190" height="140" as="geometry" />
        </mxCell>
        <mxCell id="SWi8Wzye7kiEAVYPJvs1-4" value="" style="endArrow=block;dashed=1;endFill=0;endSize=12;html=1;rounded=0;exitX=0;exitY=0.5;exitDx=0;exitDy=0;entryX=0.453;entryY=-0.025;entryDx=0;entryDy=0;entryPerimeter=0;" edge="1" parent="1" source="SWi8Wzye7kiEAVYPJvs1-3" target="SWi8Wzye7kiEAVYPJvs1-2">
          <mxGeometry width="160" relative="1" as="geometry">
            <mxPoint x="330" y="270" as="sourcePoint" />
            <mxPoint x="490" y="270" as="targetPoint" />
            <Array as="points">
              <mxPoint x="100" y="60" />
            </Array>
          </mxGeometry>
        </mxCell>
        <mxCell id="SWi8Wzye7kiEAVYPJvs1-5" value="&lt;p style=&quot;margin:0px;margin-top:4px;text-align:center;&quot;&gt;&lt;b&gt;Repo&lt;/b&gt;&lt;/p&gt;&lt;hr size=&quot;1&quot;&gt;&lt;p style=&quot;margin:0px;margin-left:4px;&quot;&gt;&lt;span style=&quot;background-color: initial;&quot;&gt;+ getUserById(int): User&lt;/span&gt;&lt;br&gt;&lt;/p&gt;&lt;p style=&quot;margin:0px;margin-left:4px;&quot;&gt;+ deleteUSerById(int): void&lt;/p&gt;&lt;p style=&quot;margin:0px;margin-left:4px;&quot;&gt;+ createUser(User): void&lt;/p&gt;&lt;p style=&quot;margin:0px;margin-left:4px;&quot;&gt;+ updateUser(User): void&lt;/p&gt;" style="verticalAlign=top;align=left;overflow=fill;fontSize=12;fontFamily=Helvetica;html=1;whiteSpace=wrap;" vertex="1" parent="1">
          <mxGeometry x="200" y="670" width="190" height="140" as="geometry" />
        </mxCell>
        <mxCell id="SWi8Wzye7kiEAVYPJvs1-6" value="" style="endArrow=block;dashed=1;endFill=0;endSize=12;html=1;rounded=0;exitX=0;exitY=0.5;exitDx=0;exitDy=0;entryX=0.421;entryY=1;entryDx=0;entryDy=0;entryPerimeter=0;" edge="1" parent="1" source="SWi8Wzye7kiEAVYPJvs1-5" target="SWi8Wzye7kiEAVYPJvs1-1">
          <mxGeometry width="160" relative="1" as="geometry">
            <mxPoint x="270" y="627" as="sourcePoint" />
            <mxPoint x="384" y="500" as="targetPoint" />
            <Array as="points">
              <mxPoint x="90" y="740" />
            </Array>
          </mxGeometry>
        </mxCell>
        <mxCell id="SWi8Wzye7kiEAVYPJvs1-7" value="&lt;p style=&quot;margin:0px;margin-top:4px;text-align:center;&quot;&gt;&lt;b&gt;AccessController&lt;/b&gt;&lt;/p&gt;&lt;hr size=&quot;1&quot;&gt;&lt;p style=&quot;margin:0px;margin-left:4px;&quot;&gt;- access: iAccess&lt;br&gt;- repo: iRepo&lt;/p&gt;&lt;hr size=&quot;1&quot;&gt;&lt;p style=&quot;margin:0px;margin-left:4px;&quot;&gt;+checkAccess(User, Token): bool&lt;/p&gt;" style="verticalAlign=top;align=left;overflow=fill;fontSize=12;fontFamily=Helvetica;html=1;whiteSpace=wrap;" vertex="1" parent="1">
          <mxGeometry x="300" y="350" width="190" height="140" as="geometry" />
        </mxCell>
        <mxCell id="SWi8Wzye7kiEAVYPJvs1-8" value="" style="endArrow=diamondThin;endFill=1;endSize=24;html=1;rounded=0;exitX=1.005;exitY=0.454;exitDx=0;exitDy=0;exitPerimeter=0;entryX=0.005;entryY=0.325;entryDx=0;entryDy=0;entryPerimeter=0;" edge="1" parent="1" source="SWi8Wzye7kiEAVYPJvs1-2" target="SWi8Wzye7kiEAVYPJvs1-7">
          <mxGeometry width="160" relative="1" as="geometry">
            <mxPoint x="330" y="340" as="sourcePoint" />
            <mxPoint x="490" y="340" as="targetPoint" />
            <Array as="points">
              <mxPoint x="240" y="344" />
              <mxPoint x="240" y="396" />
            </Array>
          </mxGeometry>
        </mxCell>
        <mxCell id="SWi8Wzye7kiEAVYPJvs1-19" value="1..1" style="edgeLabel;html=1;align=center;verticalAlign=middle;resizable=0;points=[];" vertex="1" connectable="0" parent="SWi8Wzye7kiEAVYPJvs1-8">
          <mxGeometry x="0.5318" y="1" relative="1" as="geometry">
            <mxPoint x="14" y="-15" as="offset" />
          </mxGeometry>
        </mxCell>
        <mxCell id="SWi8Wzye7kiEAVYPJvs1-9" value="" style="endArrow=diamondThin;endFill=1;endSize=24;html=1;rounded=0;exitX=1.005;exitY=0.454;exitDx=0;exitDy=0;exitPerimeter=0;entryX=-0.005;entryY=0.668;entryDx=0;entryDy=0;entryPerimeter=0;" edge="1" parent="1" target="SWi8Wzye7kiEAVYPJvs1-7">
          <mxGeometry width="160" relative="1" as="geometry">
            <mxPoint x="200" y="520" as="sourcePoint" />
            <mxPoint x="300" y="612" as="targetPoint" />
            <Array as="points">
              <mxPoint x="240" y="520" />
              <mxPoint x="240" y="444" />
            </Array>
          </mxGeometry>
        </mxCell>
        <mxCell id="SWi8Wzye7kiEAVYPJvs1-18" value="1...1" style="edgeLabel;html=1;align=center;verticalAlign=middle;resizable=0;points=[];" vertex="1" connectable="0" parent="SWi8Wzye7kiEAVYPJvs1-9">
          <mxGeometry x="0.4969" y="2" relative="1" as="geometry">
            <mxPoint y="-12" as="offset" />
          </mxGeometry>
        </mxCell>
        <mxCell id="SWi8Wzye7kiEAVYPJvs1-11" value="&lt;p style=&quot;margin:0px;margin-top:4px;text-align:center;&quot;&gt;&lt;b&gt;User&lt;/b&gt;&lt;/p&gt;&lt;hr size=&quot;1&quot;&gt;&lt;p style=&quot;margin:0px;margin-left:4px;&quot;&gt;- id: int&lt;/p&gt;&lt;p style=&quot;margin:0px;margin-left:4px;&quot;&gt;- name: String&lt;/p&gt;&lt;p style=&quot;margin:0px;margin-left:4px;&quot;&gt;- login: String&lt;/p&gt;&lt;p style=&quot;margin:0px;margin-left:4px;&quot;&gt;- hashPass: long&lt;/p&gt;&lt;p style=&quot;margin:0px;margin-left:4px;&quot;&gt;&lt;br&gt;&lt;/p&gt;&lt;hr size=&quot;1&quot;&gt;&lt;p style=&quot;margin:0px;margin-left:4px;&quot;&gt;+ method(): Type&lt;/p&gt;" style="verticalAlign=top;align=left;overflow=fill;fontSize=12;fontFamily=Helvetica;html=1;whiteSpace=wrap;" vertex="1" parent="1">
          <mxGeometry x="620" y="240" width="160" height="90" as="geometry" />
        </mxCell>
        <mxCell id="SWi8Wzye7kiEAVYPJvs1-13" value="" style="endArrow=open;endSize=12;dashed=1;html=1;rounded=0;entryX=0.419;entryY=1.006;entryDx=0;entryDy=0;entryPerimeter=0;" edge="1" parent="1">
          <mxGeometry width="160" relative="1" as="geometry">
            <mxPoint x="390" y="739.5" as="sourcePoint" />
            <mxPoint x="647.04" y="520.54" as="targetPoint" />
            <Array as="points">
              <mxPoint x="650" y="740" />
            </Array>
          </mxGeometry>
        </mxCell>
        <mxCell id="SWi8Wzye7kiEAVYPJvs1-14" value="" style="endArrow=open;endSize=12;dashed=1;html=1;rounded=0;entryX=0.419;entryY=1.006;entryDx=0;entryDy=0;entryPerimeter=0;exitX=0.5;exitY=0;exitDx=0;exitDy=0;" edge="1" parent="1" source="SWi8Wzye7kiEAVYPJvs1-11">
          <mxGeometry width="160" relative="1" as="geometry">
            <mxPoint x="657" y="-110" as="sourcePoint" />
            <mxPoint x="400" y="108.5" as="targetPoint" />
            <Array as="points">
              <mxPoint x="660" y="109" />
            </Array>
          </mxGeometry>
        </mxCell>
        <mxCell id="SWi8Wzye7kiEAVYPJvs1-15" value="&lt;p style=&quot;margin:0px;margin-top:4px;text-align:center;&quot;&gt;&lt;b&gt;Token&lt;/b&gt;&lt;/p&gt;&lt;hr size=&quot;1&quot;&gt;&lt;p style=&quot;margin:0px;margin-left:4px;&quot;&gt;- token: String&lt;/p&gt;&lt;hr size=&quot;1&quot;&gt;&lt;p style=&quot;margin:0px;margin-left:4px;&quot;&gt;&lt;br&gt;&lt;/p&gt;" style="verticalAlign=top;align=left;overflow=fill;fontSize=12;fontFamily=Helvetica;html=1;whiteSpace=wrap;" vertex="1" parent="1">
          <mxGeometry x="620" y="430" width="160" height="90" as="geometry" />
        </mxCell>
        <mxCell id="SWi8Wzye7kiEAVYPJvs1-16" value="" style="endArrow=open;endSize=12;dashed=1;html=1;rounded=0;entryX=-0.025;entryY=0.872;entryDx=0;entryDy=0;entryPerimeter=0;" edge="1" parent="1" target="SWi8Wzye7kiEAVYPJvs1-11">
          <mxGeometry width="160" relative="1" as="geometry">
            <mxPoint x="490" y="390" as="sourcePoint" />
            <mxPoint x="650" y="390" as="targetPoint" />
          </mxGeometry>
        </mxCell>
        <mxCell id="SWi8Wzye7kiEAVYPJvs1-17" value="" style="endArrow=open;endSize=12;dashed=1;html=1;rounded=0;entryX=0;entryY=0.5;entryDx=0;entryDy=0;" edge="1" parent="1" target="SWi8Wzye7kiEAVYPJvs1-15">
          <mxGeometry width="160" relative="1" as="geometry">
            <mxPoint x="490" y="430" as="sourcePoint" />
            <mxPoint x="576" y="358" as="targetPoint" />
          </mxGeometry>
        </mxCell>
        <mxCell id="UHB_Y9wZvgcxATxye76D-1" value="" style="endArrow=none;html=1;rounded=0;" edge="1" parent="1">
          <mxGeometry width="50" height="50" relative="1" as="geometry">
            <mxPoint x="-200" y="160" as="sourcePoint" />
            <mxPoint x="860" y="150" as="targetPoint" />
          </mxGeometry>
        </mxCell>
        <mxCell id="UHB_Y9wZvgcxATxye76D-2" value="" style="endArrow=none;html=1;rounded=0;" edge="1" parent="1">
          <mxGeometry width="50" height="50" relative="1" as="geometry">
            <mxPoint x="-200" y="640" as="sourcePoint" />
            <mxPoint x="860" y="640" as="targetPoint" />
          </mxGeometry>
        </mxCell>
        <mxCell id="UHB_Y9wZvgcxATxye76D-3" value="&lt;b&gt;&lt;font style=&quot;font-size: 16px;&quot;&gt;Adapter&lt;/font&gt;&lt;/b&gt;" style="text;html=1;align=center;verticalAlign=middle;resizable=0;points=[];autosize=1;strokeColor=none;fillColor=none;" vertex="1" parent="1">
          <mxGeometry x="-190" y="60" width="80" height="30" as="geometry" />
        </mxCell>
        <mxCell id="UHB_Y9wZvgcxATxye76D-5" value="&lt;b&gt;&lt;font style=&quot;font-size: 16px;&quot;&gt;Logic&lt;/font&gt;&lt;/b&gt;" style="text;html=1;align=center;verticalAlign=middle;resizable=0;points=[];autosize=1;strokeColor=none;fillColor=none;" vertex="1" parent="1">
          <mxGeometry x="-190" y="350" width="70" height="30" as="geometry" />
        </mxCell>
        <mxCell id="UHB_Y9wZvgcxATxye76D-6" value="&lt;b&gt;&lt;font style=&quot;font-size: 16px;&quot;&gt;Data&lt;/font&gt;&lt;/b&gt;" style="text;html=1;align=center;verticalAlign=middle;resizable=0;points=[];autosize=1;strokeColor=none;fillColor=none;" vertex="1" parent="1">
          <mxGeometry x="-190" y="680" width="60" height="30" as="geometry" />
        </mxCell>
        <mxCell id="UHB_Y9wZvgcxATxye76D-7" value="Interfaces" style="shape=folder;fontStyle=1;tabWidth=110;tabHeight=30;tabPosition=left;html=1;boundedLbl=1;labelInHeader=1;container=1;collapsible=0;whiteSpace=wrap;fillColor=none;" vertex="1" parent="1">
          <mxGeometry x="-30" y="210" width="250" height="410" as="geometry" />
        </mxCell>
        <mxCell id="UHB_Y9wZvgcxATxye76D-8" value="" style="html=1;strokeColor=none;resizeWidth=1;resizeHeight=1;fillColor=none;part=1;connectable=0;allowArrows=0;deletable=0;whiteSpace=wrap;" vertex="1" parent="UHB_Y9wZvgcxATxye76D-7">
          <mxGeometry width="250" height="287" relative="1" as="geometry">
            <mxPoint y="30" as="offset" />
          </mxGeometry>
        </mxCell>
        <mxCell id="UHB_Y9wZvgcxATxye76D-9" value="Domain" style="shape=folder;fontStyle=1;tabWidth=110;tabHeight=30;tabPosition=left;html=1;boundedLbl=1;labelInHeader=1;container=1;collapsible=0;whiteSpace=wrap;fillColor=none;" vertex="1" parent="1">
          <mxGeometry x="560" y="180" width="250" height="420" as="geometry" />
        </mxCell>
        <mxCell id="UHB_Y9wZvgcxATxye76D-10" value="" style="html=1;strokeColor=none;resizeWidth=1;resizeHeight=1;fillColor=none;part=1;connectable=0;allowArrows=0;deletable=0;whiteSpace=wrap;" vertex="1" parent="UHB_Y9wZvgcxATxye76D-9">
          <mxGeometry width="250" height="294" relative="1" as="geometry">
            <mxPoint y="30" as="offset" />
          </mxGeometry>
        </mxCell>
        <mxCell id="UHB_Y9wZvgcxATxye76D-11" value="Controller" style="shape=folder;fontStyle=1;tabWidth=110;tabHeight=30;tabPosition=left;html=1;boundedLbl=1;labelInHeader=1;container=1;collapsible=0;whiteSpace=wrap;fillColor=none;" vertex="1" parent="1">
          <mxGeometry x="-100" y="170" width="640" height="460" as="geometry" />
        </mxCell>
        <mxCell id="UHB_Y9wZvgcxATxye76D-12" value="" style="html=1;strokeColor=none;resizeWidth=1;resizeHeight=1;fillColor=none;part=1;connectable=0;allowArrows=0;deletable=0;whiteSpace=wrap;" vertex="1" parent="UHB_Y9wZvgcxATxye76D-11">
          <mxGeometry width="640" height="322" relative="1" as="geometry">
            <mxPoint y="30" as="offset" />
          </mxGeometry>
        </mxCell>
      </root>
    </mxGraphModel>
  </diagram>
  <diagram id="J1s4SUMAhV6b5kLvWhF_" name="Страница — 2">
    <mxGraphModel dx="2704" dy="1475" grid="1" gridSize="10" guides="1" tooltips="1" connect="1" arrows="1" fold="1" page="1" pageScale="1" pageWidth="827" pageHeight="1169" math="0" shadow="0">
      <root>
        <mxCell id="0" />
        <mxCell id="1" parent="0" />
        <mxCell id="gZr0UQMOehlyTUyrLWQe-3" value="User" style="swimlane;fontStyle=1;align=center;verticalAlign=middle;childLayout=stackLayout;horizontal=1;startSize=29;horizontalStack=0;resizeParent=1;resizeParentMax=0;resizeLast=0;collapsible=0;marginBottom=0;html=1;whiteSpace=wrap;" vertex="1" parent="1">
          <mxGeometry x="414" y="140" width="140" height="159" as="geometry" />
        </mxCell>
        <mxCell id="gZr0UQMOehlyTUyrLWQe-5" value="id: long" style="text;html=1;strokeColor=none;fillColor=none;align=left;verticalAlign=middle;spacingLeft=4;spacingRight=4;overflow=hidden;rotatable=0;points=[[0,0.5],[1,0.5]];portConstraint=eastwest;whiteSpace=wrap;" vertex="1" parent="gZr0UQMOehlyTUyrLWQe-3">
          <mxGeometry y="29" width="140" height="25" as="geometry" />
        </mxCell>
        <mxCell id="gZr0UQMOehlyTUyrLWQe-6" value="name: String" style="text;html=1;strokeColor=none;fillColor=none;align=left;verticalAlign=middle;spacingLeft=4;spacingRight=4;overflow=hidden;rotatable=0;points=[[0,0.5],[1,0.5]];portConstraint=eastwest;whiteSpace=wrap;" vertex="1" parent="gZr0UQMOehlyTUyrLWQe-3">
          <mxGeometry y="54" width="140" height="25" as="geometry" />
        </mxCell>
        <mxCell id="gZr0UQMOehlyTUyrLWQe-7" value="login: String" style="text;html=1;strokeColor=none;fillColor=none;align=left;verticalAlign=middle;spacingLeft=4;spacingRight=4;overflow=hidden;rotatable=0;points=[[0,0.5],[1,0.5]];portConstraint=eastwest;whiteSpace=wrap;" vertex="1" parent="gZr0UQMOehlyTUyrLWQe-3">
          <mxGeometry y="79" width="140" height="25" as="geometry" />
        </mxCell>
        <mxCell id="gZr0UQMOehlyTUyrLWQe-2" value="hash: long" style="text;strokeColor=none;fillColor=none;align=left;verticalAlign=middle;spacingLeft=4;spacingRight=4;overflow=hidden;points=[[0,0.5],[1,0.5]];portConstraint=eastwest;rotatable=0;whiteSpace=wrap;html=1;" vertex="1" parent="gZr0UQMOehlyTUyrLWQe-3">
          <mxGeometry y="104" width="140" height="30" as="geometry" />
        </mxCell>
        <mxCell id="gZr0UQMOehlyTUyrLWQe-8" value="robot_id: int" style="text;html=1;strokeColor=none;fillColor=none;align=left;verticalAlign=middle;spacingLeft=4;spacingRight=4;overflow=hidden;rotatable=0;points=[[0,0.5],[1,0.5]];portConstraint=eastwest;whiteSpace=wrap;" vertex="1" parent="gZr0UQMOehlyTUyrLWQe-3">
          <mxGeometry y="134" width="140" height="25" as="geometry" />
        </mxCell>
        <mxCell id="gZr0UQMOehlyTUyrLWQe-9" value="Robot" style="swimlane;fontStyle=1;align=center;verticalAlign=middle;childLayout=stackLayout;horizontal=1;startSize=29;horizontalStack=0;resizeParent=1;resizeParentMax=0;resizeLast=0;collapsible=0;marginBottom=0;html=1;whiteSpace=wrap;" vertex="1" parent="1">
          <mxGeometry x="160" y="100" width="140" height="154" as="geometry" />
        </mxCell>
        <mxCell id="gZr0UQMOehlyTUyrLWQe-10" value="id: int" style="text;html=1;strokeColor=none;fillColor=none;align=left;verticalAlign=middle;spacingLeft=4;spacingRight=4;overflow=hidden;rotatable=0;points=[[0,0.5],[1,0.5]];portConstraint=eastwest;whiteSpace=wrap;" vertex="1" parent="gZr0UQMOehlyTUyrLWQe-9">
          <mxGeometry y="29" width="140" height="25" as="geometry" />
        </mxCell>
        <mxCell id="gZr0UQMOehlyTUyrLWQe-11" value="name: String" style="text;html=1;strokeColor=none;fillColor=none;align=left;verticalAlign=middle;spacingLeft=4;spacingRight=4;overflow=hidden;rotatable=0;points=[[0,0.5],[1,0.5]];portConstraint=eastwest;whiteSpace=wrap;" vertex="1" parent="gZr0UQMOehlyTUyrLWQe-9">
          <mxGeometry y="54" width="140" height="25" as="geometry" />
        </mxCell>
        <mxCell id="gZr0UQMOehlyTUyrLWQe-44" value="model: String" style="text;html=1;strokeColor=none;fillColor=none;align=left;verticalAlign=middle;spacingLeft=4;spacingRight=4;overflow=hidden;rotatable=0;points=[[0,0.5],[1,0.5]];portConstraint=eastwest;whiteSpace=wrap;" vertex="1" parent="gZr0UQMOehlyTUyrLWQe-9">
          <mxGeometry y="79" width="140" height="25" as="geometry" />
        </mxCell>
        <mxCell id="gZr0UQMOehlyTUyrLWQe-12" value="serNumber: long" style="text;html=1;strokeColor=none;fillColor=none;align=left;verticalAlign=middle;spacingLeft=4;spacingRight=4;overflow=hidden;rotatable=0;points=[[0,0.5],[1,0.5]];portConstraint=eastwest;whiteSpace=wrap;" vertex="1" parent="gZr0UQMOehlyTUyrLWQe-9">
          <mxGeometry y="104" width="140" height="25" as="geometry" />
        </mxCell>
        <mxCell id="gZr0UQMOehlyTUyrLWQe-45" value="filterChange: Data" style="text;html=1;strokeColor=none;fillColor=none;align=left;verticalAlign=middle;spacingLeft=4;spacingRight=4;overflow=hidden;rotatable=0;points=[[0,0.5],[1,0.5]];portConstraint=eastwest;whiteSpace=wrap;" vertex="1" parent="gZr0UQMOehlyTUyrLWQe-9">
          <mxGeometry y="129" width="140" height="25" as="geometry" />
        </mxCell>
        <mxCell id="gZr0UQMOehlyTUyrLWQe-15" style="edgeStyle=orthogonalEdgeStyle;rounded=0;orthogonalLoop=1;jettySize=auto;html=1;entryX=0;entryY=0.5;entryDx=0;entryDy=0;" edge="1" parent="1" source="gZr0UQMOehlyTUyrLWQe-10" target="gZr0UQMOehlyTUyrLWQe-8">
          <mxGeometry relative="1" as="geometry" />
        </mxCell>
        <mxCell id="gZr0UQMOehlyTUyrLWQe-16" value="Shedule" style="swimlane;fontStyle=1;align=center;verticalAlign=middle;childLayout=stackLayout;horizontal=1;startSize=29;horizontalStack=0;resizeParent=1;resizeParentMax=0;resizeLast=0;collapsible=0;marginBottom=0;html=1;whiteSpace=wrap;" vertex="1" parent="1">
          <mxGeometry x="150" y="290" width="140" height="209" as="geometry" />
        </mxCell>
        <mxCell id="gZr0UQMOehlyTUyrLWQe-17" value="id: long" style="text;html=1;strokeColor=none;fillColor=none;align=left;verticalAlign=middle;spacingLeft=4;spacingRight=4;overflow=hidden;rotatable=0;points=[[0,0.5],[1,0.5]];portConstraint=eastwest;whiteSpace=wrap;" vertex="1" parent="gZr0UQMOehlyTUyrLWQe-16">
          <mxGeometry y="29" width="140" height="25" as="geometry" />
        </mxCell>
        <mxCell id="gZr0UQMOehlyTUyrLWQe-22" value="robot_id: int" style="text;html=1;strokeColor=none;fillColor=none;align=left;verticalAlign=middle;spacingLeft=4;spacingRight=4;overflow=hidden;rotatable=0;points=[[0,0.5],[1,0.5]];portConstraint=eastwest;whiteSpace=wrap;" vertex="1" parent="gZr0UQMOehlyTUyrLWQe-16">
          <mxGeometry y="54" width="140" height="25" as="geometry" />
        </mxCell>
        <mxCell id="gZr0UQMOehlyTUyrLWQe-20" value="user_id: long" style="text;strokeColor=none;fillColor=none;align=left;verticalAlign=middle;spacingLeft=4;spacingRight=4;overflow=hidden;points=[[0,0.5],[1,0.5]];portConstraint=eastwest;rotatable=0;whiteSpace=wrap;html=1;" vertex="1" parent="gZr0UQMOehlyTUyrLWQe-16">
          <mxGeometry y="79" width="140" height="30" as="geometry" />
        </mxCell>
        <mxCell id="gZr0UQMOehlyTUyrLWQe-34" value="dayOfWeek: String" style="text;html=1;strokeColor=none;fillColor=none;align=left;verticalAlign=middle;spacingLeft=4;spacingRight=4;overflow=hidden;rotatable=0;points=[[0,0.5],[1,0.5]];portConstraint=eastwest;whiteSpace=wrap;" vertex="1" parent="gZr0UQMOehlyTUyrLWQe-16">
          <mxGeometry y="109" width="140" height="25" as="geometry" />
        </mxCell>
        <mxCell id="gZr0UQMOehlyTUyrLWQe-35" value="time: Time" style="text;html=1;strokeColor=none;fillColor=none;align=left;verticalAlign=middle;spacingLeft=4;spacingRight=4;overflow=hidden;rotatable=0;points=[[0,0.5],[1,0.5]];portConstraint=eastwest;whiteSpace=wrap;" vertex="1" parent="gZr0UQMOehlyTUyrLWQe-16">
          <mxGeometry y="134" width="140" height="25" as="geometry" />
        </mxCell>
        <mxCell id="gZr0UQMOehlyTUyrLWQe-37" value="interval_id: int" style="text;html=1;strokeColor=none;fillColor=none;align=left;verticalAlign=middle;spacingLeft=4;spacingRight=4;overflow=hidden;rotatable=0;points=[[0,0.5],[1,0.5]];portConstraint=eastwest;whiteSpace=wrap;" vertex="1" parent="gZr0UQMOehlyTUyrLWQe-16">
          <mxGeometry y="159" width="140" height="25" as="geometry" />
        </mxCell>
        <mxCell id="gZr0UQMOehlyTUyrLWQe-42" value="cleaningMode_id: int" style="text;html=1;strokeColor=none;fillColor=none;align=left;verticalAlign=middle;spacingLeft=4;spacingRight=4;overflow=hidden;rotatable=0;points=[[0,0.5],[1,0.5]];portConstraint=eastwest;whiteSpace=wrap;" vertex="1" parent="gZr0UQMOehlyTUyrLWQe-16">
          <mxGeometry y="184" width="140" height="25" as="geometry" />
        </mxCell>
        <mxCell id="gZr0UQMOehlyTUyrLWQe-38" style="edgeStyle=orthogonalEdgeStyle;rounded=0;orthogonalLoop=1;jettySize=auto;html=1;entryX=0;entryY=0.5;entryDx=0;entryDy=0;exitX=0;exitY=0.5;exitDx=0;exitDy=0;" edge="1" parent="1" source="gZr0UQMOehlyTUyrLWQe-24" target="gZr0UQMOehlyTUyrLWQe-37">
          <mxGeometry relative="1" as="geometry" />
        </mxCell>
        <mxCell id="gZr0UQMOehlyTUyrLWQe-23" value="Intervals" style="swimlane;fontStyle=1;align=center;verticalAlign=middle;childLayout=stackLayout;horizontal=1;startSize=29;horizontalStack=0;resizeParent=1;resizeParentMax=0;resizeLast=0;collapsible=0;marginBottom=0;html=1;whiteSpace=wrap;" vertex="1" parent="1">
          <mxGeometry x="150" y="560" width="140" height="84" as="geometry" />
        </mxCell>
        <mxCell id="gZr0UQMOehlyTUyrLWQe-24" value="id: int" style="text;html=1;strokeColor=none;fillColor=none;align=left;verticalAlign=middle;spacingLeft=4;spacingRight=4;overflow=hidden;rotatable=0;points=[[0,0.5],[1,0.5]];portConstraint=eastwest;whiteSpace=wrap;" vertex="1" parent="gZr0UQMOehlyTUyrLWQe-23">
          <mxGeometry y="29" width="140" height="25" as="geometry" />
        </mxCell>
        <mxCell id="gZr0UQMOehlyTUyrLWQe-25" value="type: String" style="text;strokeColor=none;fillColor=none;align=left;verticalAlign=middle;spacingLeft=4;spacingRight=4;overflow=hidden;points=[[0,0.5],[1,0.5]];portConstraint=eastwest;rotatable=0;whiteSpace=wrap;html=1;" vertex="1" parent="gZr0UQMOehlyTUyrLWQe-23">
          <mxGeometry y="54" width="140" height="30" as="geometry" />
        </mxCell>
        <mxCell id="gZr0UQMOehlyTUyrLWQe-27" value="CleaningMode" style="swimlane;fontStyle=1;align=center;verticalAlign=middle;childLayout=stackLayout;horizontal=1;startSize=29;horizontalStack=0;resizeParent=1;resizeParentMax=0;resizeLast=0;collapsible=0;marginBottom=0;html=1;whiteSpace=wrap;" vertex="1" parent="1">
          <mxGeometry x="390" y="451" width="140" height="134" as="geometry" />
        </mxCell>
        <mxCell id="gZr0UQMOehlyTUyrLWQe-28" value="id: int" style="text;html=1;strokeColor=none;fillColor=none;align=left;verticalAlign=middle;spacingLeft=4;spacingRight=4;overflow=hidden;rotatable=0;points=[[0,0.5],[1,0.5]];portConstraint=eastwest;whiteSpace=wrap;" vertex="1" parent="gZr0UQMOehlyTUyrLWQe-27">
          <mxGeometry y="29" width="140" height="25" as="geometry" />
        </mxCell>
        <mxCell id="gZr0UQMOehlyTUyrLWQe-29" value="mode: String" style="text;strokeColor=none;fillColor=none;align=left;verticalAlign=middle;spacingLeft=4;spacingRight=4;overflow=hidden;points=[[0,0.5],[1,0.5]];portConstraint=eastwest;rotatable=0;whiteSpace=wrap;html=1;" vertex="1" parent="gZr0UQMOehlyTUyrLWQe-27">
          <mxGeometry y="54" width="140" height="30" as="geometry" />
        </mxCell>
        <mxCell id="gZr0UQMOehlyTUyrLWQe-30" value="water: bool" style="text;html=1;strokeColor=none;fillColor=none;align=left;verticalAlign=middle;spacingLeft=4;spacingRight=4;overflow=hidden;rotatable=0;points=[[0,0.5],[1,0.5]];portConstraint=eastwest;whiteSpace=wrap;" vertex="1" parent="gZr0UQMOehlyTUyrLWQe-27">
          <mxGeometry y="84" width="140" height="25" as="geometry" />
        </mxCell>
        <mxCell id="gZr0UQMOehlyTUyrLWQe-41" value="capacity: int" style="text;html=1;strokeColor=none;fillColor=none;align=left;verticalAlign=middle;spacingLeft=4;spacingRight=4;overflow=hidden;rotatable=0;points=[[0,0.5],[1,0.5]];portConstraint=eastwest;whiteSpace=wrap;" vertex="1" parent="gZr0UQMOehlyTUyrLWQe-27">
          <mxGeometry y="109" width="140" height="25" as="geometry" />
        </mxCell>
        <mxCell id="gZr0UQMOehlyTUyrLWQe-31" style="edgeStyle=orthogonalEdgeStyle;rounded=0;orthogonalLoop=1;jettySize=auto;html=1;entryX=0;entryY=0.5;entryDx=0;entryDy=0;" edge="1" parent="1" source="gZr0UQMOehlyTUyrLWQe-10" target="gZr0UQMOehlyTUyrLWQe-22">
          <mxGeometry relative="1" as="geometry" />
        </mxCell>
        <mxCell id="gZr0UQMOehlyTUyrLWQe-32" style="edgeStyle=orthogonalEdgeStyle;rounded=0;orthogonalLoop=1;jettySize=auto;html=1;entryX=1;entryY=0.5;entryDx=0;entryDy=0;" edge="1" parent="1" source="gZr0UQMOehlyTUyrLWQe-5" target="gZr0UQMOehlyTUyrLWQe-20">
          <mxGeometry relative="1" as="geometry">
            <Array as="points">
              <mxPoint x="380" y="182" />
              <mxPoint x="380" y="384" />
            </Array>
          </mxGeometry>
        </mxCell>
        <mxCell id="gZr0UQMOehlyTUyrLWQe-33" value="&lt;b&gt;&lt;font style=&quot;font-size: 20px;&quot;&gt;ERD (cloud)&lt;/font&gt;&lt;/b&gt;" style="text;html=1;align=center;verticalAlign=middle;resizable=0;points=[];autosize=1;strokeColor=none;fillColor=none;" vertex="1" parent="1">
          <mxGeometry x="60" y="43" width="140" height="40" as="geometry" />
        </mxCell>
        <mxCell id="gZr0UQMOehlyTUyrLWQe-43" style="edgeStyle=orthogonalEdgeStyle;rounded=0;orthogonalLoop=1;jettySize=auto;html=1;entryX=1;entryY=0.5;entryDx=0;entryDy=0;" edge="1" parent="1" source="gZr0UQMOehlyTUyrLWQe-28" target="gZr0UQMOehlyTUyrLWQe-42">
          <mxGeometry relative="1" as="geometry" />
        </mxCell>
      </root>
    </mxGraphModel>
  </diagram>
</mxfile>
